<?xml version="1.0" encoding="iso-8859-1"?>
<!-- Generator: Adobe Illustrator 19.0.0, SVG Export Plug-In . SVG Version: 6.00 Build 0)  -->
<svg version="1.1" id="Layer_1" xmlns="http://www.w3.org/2000/svg" xmlns:xlink="http://www.w3.org/1999/xlink" x="0px" y="0px"
	 viewBox="0 0 512 512" style="enable-background:new 0 0 512 512;" xml:space="preserve">
<path d="M480,412.88h-16v-20h16V412.88z M480,372.88h-16v-20h16V372.88z M480,332.88h-16v-20h16V332.88z"/>
<path d="M48,412.88H32v-20h16V412.88z M48,372.88H32v-20h16V372.88z M48,332.88H32v-20h16V332.88z"/>
<path d="M480,197.984h-16v-20h16V197.984z M480,157.984h-16v-20h16V157.984z M480,117.984h-16v-20h16V117.984z"/>
<path d="M413.984,48h-20V32h20V48z M373.984,48h-20V32h20V48z M333.984,48h-20V32h20V48z"/>
<path d="M197.984,48h-20V32h20V48z M157.984,48h-20V32h20V48z M117.984,48h-20V32h20V48z"/>
<path d="M413.984,480h-20v-16h20V480z M373.984,480h-20v-16h20V480z M333.984,480h-20v-16h20V480z"/>
<path d="M197.984,480h-20v-16h20V480z M157.984,480h-20v-16h20V480z M117.984,480h-20v-16h20V480z"/>
<path d="M48,197.984H32v-20h16V197.984z M48,157.984H32v-20h16V157.984z M48,117.984H32v-20h16V117.984z"/>
<g>
	<rect x="216" y="216" style="fill:#E21B1B;" width="80" height="80"/>
	<rect x="216" style="fill:#E21B1B;" width="80" height="80"/>
	<rect y="432" style="fill:#E21B1B;" width="80" height="80"/>
	<rect style="fill:#E21B1B;" width="80" height="80"/>
	<rect x="216" y="432" style="fill:#E21B1B;" width="80" height="80"/>
	<rect x="432" y="216" style="fill:#E21B1B;" width="80" height="80"/>
	<rect x="432" style="fill:#E21B1B;" width="80" height="80"/>
	<rect x="432" y="432" style="fill:#E21B1B;" width="80" height="80"/>
	<rect y="216" style="fill:#E21B1B;" width="80" height="80"/>
</g>
<g>
</g>
<g>
</g>
<g>
</g>
<g>
</g>
<g>
</g>
<g>
</g>
<g>
</g>
<g>
</g>
<g>
</g>
<g>
</g>
<g>
</g>
<g>
</g>
<g>
</g>
<g>
</g>
<g>
</g>
</svg>
